<mxfile host="app.diagrams.net" modified="2023-08-03T21:10:45.228Z" agent="Mozilla/5.0 (Windows NT 10.0; Win64; x64) AppleWebKit/537.36 (KHTML, like Gecko) Chrome/115.0.0.0 Safari/537.36" etag="-08G7veJIL1pV7cJtIsg" version="21.6.6" type="github" pages="2">
  <diagram name="Canais de venda" id="g_4XjmsVVV43hASZV-fC">
    <mxGraphModel dx="1050" dy="542" grid="1" gridSize="10" guides="1" tooltips="1" connect="1" arrows="1" fold="1" page="1" pageScale="1" pageWidth="827" pageHeight="1169" math="0" shadow="0">
      <root>
        <mxCell id="0" />
        <mxCell id="1" parent="0" />
        <mxCell id="BqCGBXQfrdc7MRANB-_5-2" value="Canais não presenciais" style="rounded=1;whiteSpace=wrap;html=1;absoluteArcSize=1;arcSize=14;strokeWidth=2;horizontal=1;verticalAlign=top;" vertex="1" parent="1">
          <mxGeometry x="30" y="30" width="210" height="100" as="geometry" />
        </mxCell>
        <mxCell id="BqCGBXQfrdc7MRANB-_5-3" value="Tele Vendas Autorizado" style="rounded=1;whiteSpace=wrap;html=1;absoluteArcSize=1;arcSize=14;strokeWidth=2;" vertex="1" parent="1">
          <mxGeometry x="40" y="60" width="90" height="60" as="geometry" />
        </mxCell>
        <mxCell id="BqCGBXQfrdc7MRANB-_5-4" value="Tele Vendas Receptivo" style="rounded=1;whiteSpace=wrap;html=1;absoluteArcSize=1;arcSize=14;strokeWidth=2;" vertex="1" parent="1">
          <mxGeometry x="140" y="60" width="90" height="60" as="geometry" />
        </mxCell>
        <mxCell id="BqCGBXQfrdc7MRANB-_5-5" value="Canais presenciais" style="rounded=1;whiteSpace=wrap;html=1;absoluteArcSize=1;arcSize=14;strokeWidth=2;horizontal=1;verticalAlign=top;" vertex="1" parent="1">
          <mxGeometry x="260" y="30" width="410" height="100" as="geometry" />
        </mxCell>
        <mxCell id="BqCGBXQfrdc7MRANB-_5-6" value="PaP Premium" style="rounded=1;whiteSpace=wrap;html=1;absoluteArcSize=1;arcSize=14;strokeWidth=2;" vertex="1" parent="1">
          <mxGeometry x="270" y="60" width="90" height="60" as="geometry" />
        </mxCell>
        <mxCell id="BqCGBXQfrdc7MRANB-_5-7" value="PaP Terceiro" style="rounded=1;whiteSpace=wrap;html=1;absoluteArcSize=1;arcSize=14;strokeWidth=2;" vertex="1" parent="1">
          <mxGeometry x="370" y="60" width="90" height="60" as="geometry" />
        </mxCell>
        <mxCell id="BqCGBXQfrdc7MRANB-_5-8" value="Agente Autorizado" style="rounded=1;whiteSpace=wrap;html=1;absoluteArcSize=1;arcSize=14;strokeWidth=2;" vertex="1" parent="1">
          <mxGeometry x="470" y="60" width="90" height="60" as="geometry" />
        </mxCell>
        <mxCell id="BqCGBXQfrdc7MRANB-_5-9" value="Loja Própria" style="rounded=1;whiteSpace=wrap;html=1;absoluteArcSize=1;arcSize=14;strokeWidth=2;" vertex="1" parent="1">
          <mxGeometry x="570" y="60" width="90" height="60" as="geometry" />
        </mxCell>
        <mxCell id="BqCGBXQfrdc7MRANB-_5-12" value="" style="endArrow=none;html=1;rounded=0;entryX=0.5;entryY=1;entryDx=0;entryDy=0;exitX=0.5;exitY=0;exitDx=0;exitDy=0;" edge="1" parent="1" source="BqCGBXQfrdc7MRANB-_5-24" target="BqCGBXQfrdc7MRANB-_5-9">
          <mxGeometry width="50" height="50" relative="1" as="geometry">
            <mxPoint x="615" y="150" as="sourcePoint" />
            <mxPoint x="320" y="160" as="targetPoint" />
          </mxGeometry>
        </mxCell>
        <mxCell id="BqCGBXQfrdc7MRANB-_5-15" value="" style="endArrow=none;html=1;rounded=0;entryX=0.5;entryY=1;entryDx=0;entryDy=0;" edge="1" parent="1" source="BqCGBXQfrdc7MRANB-_5-20" target="BqCGBXQfrdc7MRANB-_5-8">
          <mxGeometry width="50" height="50" relative="1" as="geometry">
            <mxPoint x="515" y="160" as="sourcePoint" />
            <mxPoint x="632" y="133" as="targetPoint" />
          </mxGeometry>
        </mxCell>
        <mxCell id="BqCGBXQfrdc7MRANB-_5-17" value="" style="endArrow=none;html=1;rounded=0;entryX=0.5;entryY=1;entryDx=0;entryDy=0;exitX=0.5;exitY=0;exitDx=0;exitDy=0;" edge="1" parent="1" source="BqCGBXQfrdc7MRANB-_5-22" target="BqCGBXQfrdc7MRANB-_5-7">
          <mxGeometry width="50" height="50" relative="1" as="geometry">
            <mxPoint x="415" y="160" as="sourcePoint" />
            <mxPoint x="525" y="130" as="targetPoint" />
          </mxGeometry>
        </mxCell>
        <mxCell id="BqCGBXQfrdc7MRANB-_5-19" value="" style="endArrow=none;html=1;rounded=0;entryX=0.5;entryY=1;entryDx=0;entryDy=0;exitX=0.5;exitY=0;exitDx=0;exitDy=0;" edge="1" parent="1" source="BqCGBXQfrdc7MRANB-_5-21" target="BqCGBXQfrdc7MRANB-_5-4">
          <mxGeometry width="50" height="50" relative="1" as="geometry">
            <mxPoint x="185" y="150" as="sourcePoint" />
            <mxPoint x="185" y="140" as="targetPoint" />
          </mxGeometry>
        </mxCell>
        <mxCell id="BqCGBXQfrdc7MRANB-_5-20" value="&lt;ul&gt;&lt;li&gt;AA Brans Shop&lt;/li&gt;&lt;li&gt;Ativo Aquisição&lt;/li&gt;&lt;li&gt;Ativo Rentabilização&lt;/li&gt;&lt;li&gt;Claro Empresas&lt;/li&gt;&lt;li&gt;Distribuidor&lt;/li&gt;&lt;li&gt;Recarga&lt;/li&gt;&lt;li&gt;Pesquisa&lt;/li&gt;&lt;li&gt;Outros&lt;/li&gt;&lt;/ul&gt;" style="text;strokeColor=none;fillColor=none;html=1;whiteSpace=wrap;verticalAlign=middle;overflow=hidden;" vertex="1" parent="1">
          <mxGeometry x="448.75" y="190" width="132.5" height="150" as="geometry" />
        </mxCell>
        <mxCell id="BqCGBXQfrdc7MRANB-_5-21" value="&lt;ul&gt;&lt;li&gt;Controle Remoto&lt;/li&gt;&lt;li&gt;URA&lt;/li&gt;&lt;li&gt;Internet&lt;/li&gt;&lt;li&gt;Receptivo&lt;/li&gt;&lt;li&gt;Receptivo Rentabilização Exclusivo&lt;/li&gt;&lt;li&gt;Call Center?&lt;br&gt;&lt;/li&gt;&lt;/ul&gt;" style="text;strokeColor=none;fillColor=none;html=1;whiteSpace=wrap;verticalAlign=middle;overflow=hidden;" vertex="1" parent="1">
          <mxGeometry x="118.75" y="160" width="132.5" height="140" as="geometry" />
        </mxCell>
        <mxCell id="BqCGBXQfrdc7MRANB-_5-22" value="&lt;ul&gt;&lt;li&gt;Porta Porta Indireto&lt;/li&gt;&lt;li&gt;PME&lt;/li&gt;&lt;/ul&gt;" style="text;strokeColor=none;fillColor=none;html=1;whiteSpace=wrap;verticalAlign=middle;overflow=hidden;" vertex="1" parent="1">
          <mxGeometry x="348.75" y="160" width="132.5" height="60" as="geometry" />
        </mxCell>
        <mxCell id="BqCGBXQfrdc7MRANB-_5-23" value="&lt;ul&gt;&lt;li&gt;Inside Sales&lt;/li&gt;&lt;li&gt;Corporate&lt;/li&gt;&lt;li&gt;Top PME&lt;/li&gt;&lt;li&gt;Porta Porta AA&lt;/li&gt;&lt;/ul&gt;" style="text;strokeColor=none;fillColor=none;html=1;whiteSpace=wrap;verticalAlign=middle;overflow=hidden;" vertex="1" parent="1">
          <mxGeometry x="248.75" y="180" width="132.5" height="80" as="geometry" />
        </mxCell>
        <mxCell id="BqCGBXQfrdc7MRANB-_5-24" value="&lt;ul&gt;&lt;li&gt;Lojas Próprias&lt;/li&gt;&lt;li&gt;Varejo&lt;/li&gt;&lt;li&gt;ISP?&lt;/li&gt;&lt;/ul&gt;" style="text;strokeColor=none;fillColor=none;html=1;whiteSpace=wrap;verticalAlign=middle;overflow=hidden;" vertex="1" parent="1">
          <mxGeometry x="548.75" y="145" width="132.5" height="60" as="geometry" />
        </mxCell>
        <mxCell id="BqCGBXQfrdc7MRANB-_5-26" value="" style="endArrow=none;html=1;rounded=0;entryX=0.5;entryY=1;entryDx=0;entryDy=0;exitX=0.5;exitY=0;exitDx=0;exitDy=0;" edge="1" parent="1" source="BqCGBXQfrdc7MRANB-_5-23" target="BqCGBXQfrdc7MRANB-_5-6">
          <mxGeometry width="50" height="50" relative="1" as="geometry">
            <mxPoint x="195" y="160" as="sourcePoint" />
            <mxPoint x="195" y="130" as="targetPoint" />
          </mxGeometry>
        </mxCell>
        <mxCell id="BqCGBXQfrdc7MRANB-_5-28" value="&lt;ul&gt;&lt;li&gt;Backoffice&lt;/li&gt;&lt;/ul&gt;" style="text;strokeColor=none;fillColor=none;html=1;whiteSpace=wrap;verticalAlign=middle;overflow=hidden;" vertex="1" parent="1">
          <mxGeometry x="18.75" y="160" width="132.5" height="30" as="geometry" />
        </mxCell>
        <mxCell id="BqCGBXQfrdc7MRANB-_5-29" value="" style="endArrow=none;html=1;rounded=0;entryX=0.5;entryY=1;entryDx=0;entryDy=0;exitX=0.5;exitY=0;exitDx=0;exitDy=0;" edge="1" parent="1" source="BqCGBXQfrdc7MRANB-_5-28" target="BqCGBXQfrdc7MRANB-_5-3">
          <mxGeometry width="50" height="50" relative="1" as="geometry">
            <mxPoint x="195" y="170" as="sourcePoint" />
            <mxPoint x="195" y="130" as="targetPoint" />
          </mxGeometry>
        </mxCell>
      </root>
    </mxGraphModel>
  </diagram>
  <diagram id="PyeklQ4XtshNFEQEnxLZ" name="Jornada NETSales">
    <mxGraphModel dx="1050" dy="542" grid="1" gridSize="10" guides="1" tooltips="1" connect="1" arrows="1" fold="1" page="1" pageScale="1" pageWidth="827" pageHeight="1169" math="0" shadow="0">
      <root>
        <mxCell id="0" />
        <mxCell id="1" parent="0" />
        <mxCell id="2dL-tV5il3Ey2WgfJL2A-8" value="" style="edgeStyle=orthogonalEdgeStyle;rounded=0;orthogonalLoop=1;jettySize=auto;html=1;" edge="1" parent="1" source="2dL-tV5il3Ey2WgfJL2A-1" target="2dL-tV5il3Ey2WgfJL2A-7">
          <mxGeometry relative="1" as="geometry" />
        </mxCell>
        <mxCell id="2dL-tV5il3Ey2WgfJL2A-1" value="Dados iniciais" style="rounded=1;whiteSpace=wrap;html=1;absoluteArcSize=1;arcSize=14;strokeWidth=2;fillColor=#dae8fc;strokeColor=#6c8ebf;" vertex="1" parent="1">
          <mxGeometry x="100" y="25" width="100" height="50" as="geometry" />
        </mxCell>
        <mxCell id="2dL-tV5il3Ey2WgfJL2A-5" value="" style="edgeStyle=orthogonalEdgeStyle;rounded=0;orthogonalLoop=1;jettySize=auto;html=1;" edge="1" parent="1" source="2dL-tV5il3Ey2WgfJL2A-4" target="2dL-tV5il3Ey2WgfJL2A-1">
          <mxGeometry relative="1" as="geometry" />
        </mxCell>
        <mxCell id="2dL-tV5il3Ey2WgfJL2A-4" value="Vendedor" style="shape=umlActor;verticalLabelPosition=bottom;verticalAlign=top;html=1;" vertex="1" parent="1">
          <mxGeometry x="30" y="20" width="30" height="60" as="geometry" />
        </mxCell>
        <mxCell id="2dL-tV5il3Ey2WgfJL2A-6" value="&lt;ol&gt;&lt;li&gt;Nome&lt;/li&gt;&lt;li&gt;Telefone&lt;/li&gt;&lt;li&gt;Estado&amp;nbsp;&lt;/li&gt;&lt;li&gt;Cidade&lt;/li&gt;&lt;/ol&gt;" style="text;strokeColor=none;fillColor=none;html=1;whiteSpace=wrap;verticalAlign=middle;overflow=hidden;" vertex="1" parent="1">
          <mxGeometry x="100" y="100" width="100" height="80" as="geometry" />
        </mxCell>
        <mxCell id="2dL-tV5il3Ey2WgfJL2A-14" value="" style="edgeStyle=orthogonalEdgeStyle;rounded=0;orthogonalLoop=1;jettySize=auto;html=1;" edge="1" parent="1" source="2dL-tV5il3Ey2WgfJL2A-7" target="2dL-tV5il3Ey2WgfJL2A-13">
          <mxGeometry relative="1" as="geometry" />
        </mxCell>
        <mxCell id="2dL-tV5il3Ey2WgfJL2A-7" value="Pesquisa Endereço" style="rounded=1;whiteSpace=wrap;html=1;absoluteArcSize=1;arcSize=14;strokeWidth=2;" vertex="1" parent="1">
          <mxGeometry x="250" y="25" width="100" height="50" as="geometry" />
        </mxCell>
        <mxCell id="2dL-tV5il3Ey2WgfJL2A-10" value="" style="endArrow=none;html=1;rounded=0;entryX=0.5;entryY=1;entryDx=0;entryDy=0;exitX=0.5;exitY=0;exitDx=0;exitDy=0;" edge="1" parent="1" source="2dL-tV5il3Ey2WgfJL2A-6" target="2dL-tV5il3Ey2WgfJL2A-1">
          <mxGeometry width="50" height="50" relative="1" as="geometry">
            <mxPoint x="390" y="160" as="sourcePoint" />
            <mxPoint x="440" y="110" as="targetPoint" />
          </mxGeometry>
        </mxCell>
        <mxCell id="2dL-tV5il3Ey2WgfJL2A-11" value="&lt;ol&gt;&lt;li&gt;Identifica HP&lt;/li&gt;&lt;/ol&gt;" style="text;strokeColor=none;fillColor=none;html=1;whiteSpace=wrap;verticalAlign=middle;overflow=hidden;" vertex="1" parent="1">
          <mxGeometry x="250" y="100" width="100" height="50" as="geometry" />
        </mxCell>
        <mxCell id="2dL-tV5il3Ey2WgfJL2A-12" value="" style="endArrow=none;html=1;rounded=0;entryX=0.5;entryY=1;entryDx=0;entryDy=0;exitX=0.5;exitY=0;exitDx=0;exitDy=0;" edge="1" parent="1" source="2dL-tV5il3Ey2WgfJL2A-11" target="2dL-tV5il3Ey2WgfJL2A-7">
          <mxGeometry width="50" height="50" relative="1" as="geometry">
            <mxPoint x="160" y="110" as="sourcePoint" />
            <mxPoint x="160" y="85" as="targetPoint" />
          </mxGeometry>
        </mxCell>
        <mxCell id="2dL-tV5il3Ey2WgfJL2A-16" value="" style="edgeStyle=orthogonalEdgeStyle;rounded=0;orthogonalLoop=1;jettySize=auto;html=1;" edge="1" parent="1" source="2dL-tV5il3Ey2WgfJL2A-13" target="2dL-tV5il3Ey2WgfJL2A-15">
          <mxGeometry relative="1" as="geometry" />
        </mxCell>
        <mxCell id="2dL-tV5il3Ey2WgfJL2A-13" value="Viabilidade Técnica" style="rounded=1;whiteSpace=wrap;html=1;absoluteArcSize=1;arcSize=14;strokeWidth=2;" vertex="1" parent="1">
          <mxGeometry x="390" y="25" width="100" height="50" as="geometry" />
        </mxCell>
        <mxCell id="2dL-tV5il3Ey2WgfJL2A-18" value="" style="edgeStyle=orthogonalEdgeStyle;rounded=0;orthogonalLoop=1;jettySize=auto;html=1;" edge="1" parent="1" source="2dL-tV5il3Ey2WgfJL2A-15" target="2dL-tV5il3Ey2WgfJL2A-17">
          <mxGeometry relative="1" as="geometry" />
        </mxCell>
        <mxCell id="2dL-tV5il3Ey2WgfJL2A-15" value="Gera Protocolo" style="rounded=1;whiteSpace=wrap;html=1;absoluteArcSize=1;arcSize=14;strokeWidth=2;" vertex="1" parent="1">
          <mxGeometry x="530" y="25" width="100" height="50" as="geometry" />
        </mxCell>
        <mxCell id="2dL-tV5il3Ey2WgfJL2A-17" value="Dados da Venda" style="rounded=1;whiteSpace=wrap;html=1;absoluteArcSize=1;arcSize=14;strokeWidth=2;fillColor=#dae8fc;strokeColor=#6c8ebf;" vertex="1" parent="1">
          <mxGeometry x="660" y="25" width="100" height="50" as="geometry" />
        </mxCell>
        <mxCell id="2dL-tV5il3Ey2WgfJL2A-19" value="&lt;ol&gt;&lt;li&gt;CPF&lt;/li&gt;&lt;li&gt;Empresa Venda&lt;/li&gt;&lt;li&gt;Tipo venda&lt;/li&gt;&lt;li&gt;Vendedor&lt;/li&gt;&lt;/ol&gt;" style="text;strokeColor=none;fillColor=none;html=1;whiteSpace=wrap;verticalAlign=middle;overflow=hidden;" vertex="1" parent="1">
          <mxGeometry x="640" y="94" width="140" height="79" as="geometry" />
        </mxCell>
        <mxCell id="2dL-tV5il3Ey2WgfJL2A-20" value="" style="endArrow=none;html=1;rounded=0;entryX=0.5;entryY=1;entryDx=0;entryDy=0;exitX=0.5;exitY=0;exitDx=0;exitDy=0;" edge="1" parent="1" source="2dL-tV5il3Ey2WgfJL2A-19" target="2dL-tV5il3Ey2WgfJL2A-17">
          <mxGeometry width="50" height="50" relative="1" as="geometry">
            <mxPoint x="310" y="110" as="sourcePoint" />
            <mxPoint x="310" y="85" as="targetPoint" />
          </mxGeometry>
        </mxCell>
        <mxCell id="2dL-tV5il3Ey2WgfJL2A-24" value="" style="edgeStyle=orthogonalEdgeStyle;rounded=0;orthogonalLoop=1;jettySize=auto;html=1;" edge="1" parent="1" source="2dL-tV5il3Ey2WgfJL2A-21" target="2dL-tV5il3Ey2WgfJL2A-23">
          <mxGeometry relative="1" as="geometry" />
        </mxCell>
        <mxCell id="2dL-tV5il3Ey2WgfJL2A-21" value="Dados Cobrança" style="rounded=1;whiteSpace=wrap;html=1;absoluteArcSize=1;arcSize=14;strokeWidth=2;fillColor=#dae8fc;strokeColor=#6c8ebf;" vertex="1" parent="1">
          <mxGeometry x="660" y="180" width="100" height="50" as="geometry" />
        </mxCell>
        <mxCell id="2dL-tV5il3Ey2WgfJL2A-22" value="" style="edgeStyle=elbowEdgeStyle;elbow=horizontal;endArrow=classic;html=1;curved=0;rounded=0;endSize=8;startSize=8;exitX=1;exitY=0.5;exitDx=0;exitDy=0;entryX=1;entryY=0.5;entryDx=0;entryDy=0;" edge="1" parent="1" source="2dL-tV5il3Ey2WgfJL2A-17" target="2dL-tV5il3Ey2WgfJL2A-21">
          <mxGeometry width="50" height="50" relative="1" as="geometry">
            <mxPoint x="390" y="90" as="sourcePoint" />
            <mxPoint x="440" y="40" as="targetPoint" />
            <Array as="points">
              <mxPoint x="810" y="130" />
            </Array>
          </mxGeometry>
        </mxCell>
        <mxCell id="2dL-tV5il3Ey2WgfJL2A-26" value="" style="edgeStyle=orthogonalEdgeStyle;rounded=0;orthogonalLoop=1;jettySize=auto;html=1;" edge="1" parent="1" source="2dL-tV5il3Ey2WgfJL2A-23" target="2dL-tV5il3Ey2WgfJL2A-25">
          <mxGeometry relative="1" as="geometry" />
        </mxCell>
        <mxCell id="2dL-tV5il3Ey2WgfJL2A-23" value="Dados Pessoais" style="rounded=1;whiteSpace=wrap;html=1;absoluteArcSize=1;arcSize=14;strokeWidth=2;fillColor=#dae8fc;strokeColor=#6c8ebf;" vertex="1" parent="1">
          <mxGeometry x="530" y="180" width="100" height="50" as="geometry" />
        </mxCell>
        <mxCell id="2dL-tV5il3Ey2WgfJL2A-29" value="" style="edgeStyle=orthogonalEdgeStyle;rounded=0;orthogonalLoop=1;jettySize=auto;html=1;" edge="1" parent="1" source="2dL-tV5il3Ey2WgfJL2A-25" target="2dL-tV5il3Ey2WgfJL2A-27">
          <mxGeometry relative="1" as="geometry" />
        </mxCell>
        <mxCell id="2dL-tV5il3Ey2WgfJL2A-25" value="Produtos" style="rounded=1;whiteSpace=wrap;html=1;absoluteArcSize=1;arcSize=14;strokeWidth=2;fillColor=#dae8fc;strokeColor=#6c8ebf;" vertex="1" parent="1">
          <mxGeometry x="390" y="180" width="100" height="50" as="geometry" />
        </mxCell>
        <mxCell id="2dL-tV5il3Ey2WgfJL2A-27" value="Resumo" style="rounded=1;whiteSpace=wrap;html=1;absoluteArcSize=1;arcSize=14;strokeWidth=2;fillColor=#dae8fc;strokeColor=#6c8ebf;" vertex="1" parent="1">
          <mxGeometry x="250" y="180" width="100" height="50" as="geometry" />
        </mxCell>
        <mxCell id="2dL-tV5il3Ey2WgfJL2A-30" value="&lt;ol&gt;&lt;li&gt;Pendências&lt;/li&gt;&lt;li&gt;Checagem de crédito&lt;/li&gt;&lt;li&gt;Reserva de telefone&lt;/li&gt;&lt;li&gt;Nome na lista&lt;/li&gt;&lt;li&gt;Agendamento Instalação&lt;/li&gt;&lt;/ol&gt;" style="text;strokeColor=none;fillColor=none;html=1;whiteSpace=wrap;verticalAlign=middle;overflow=hidden;" vertex="1" parent="1">
          <mxGeometry x="210" y="250" width="180" height="90" as="geometry" />
        </mxCell>
        <mxCell id="2dL-tV5il3Ey2WgfJL2A-31" value="" style="endArrow=none;html=1;rounded=0;entryX=0.5;entryY=1;entryDx=0;entryDy=0;exitX=0.5;exitY=0;exitDx=0;exitDy=0;" edge="1" parent="1" source="2dL-tV5il3Ey2WgfJL2A-30" target="2dL-tV5il3Ey2WgfJL2A-27">
          <mxGeometry width="50" height="50" relative="1" as="geometry">
            <mxPoint x="310" y="110" as="sourcePoint" />
            <mxPoint x="310" y="85" as="targetPoint" />
          </mxGeometry>
        </mxCell>
      </root>
    </mxGraphModel>
  </diagram>
</mxfile>
